# xmcd CD database file
#
# Track frame offsets:
#	150
#	44644
#	91183
#	112988
#	141180
#	175895
#	214947
#	248659
#	272066
#
# Disc length: 4031 seconds
#
# Revision: 0
# Processed by: cddbd v1.5.1PL2 Copyright (c) Steve Scherf et al.
# Submitted via: CDex 1.51
#
DISCID=7e0fbd09
DTITLE=Andrew Hill - Eternal Spirit
DYEAR=1989
DGENRE=Jazz
TTITLE0=01-Pinnacle
TTITLE1=02-Golden.Sunset
TTITLE2=03-Samba.Rasta
TTITLE3=04-Tail.Feather
TTITLE4=05-Spiritual.Lover
TTITLE5=06-Bobby´s.Tune
TTITLE6=07-Pinnacle.(Alternate.Take)
TTITLE7=08-Golden.Sunset.(Alternate.Take)
TTITLE8=09-Spritual.Lover.(Alternate.Take)
EXTD=YEAR: 1989
EXTT0=
EXTT1=
EXTT2=
EXTT3=
EXTT4=
EXTT5=
EXTT6=
EXTT7=
EXTT8=
PLAYORDER=
